<?xml version="1.0" standalone="no"?>
<!DOCTYPE svg PUBLIC "-//W3C//DTD SVG 20010904//EN"
 "http://www.w3.org/TR/2001/REC-SVG-20010904/DTD/svg10.dtd">
<svg version="1.0" xmlns="http://www.w3.org/2000/svg"
 width="1000.000000pt" height="1000.000000pt" viewBox="0 0 1000.000000 1000.000000"
 preserveAspectRatio="xMidYMid meet">
<metadata>
Created by potrace 1.14, written by Peter Selinger 2001-2017
</metadata>
<g transform="translate(0.000000,1000.000000) scale(0.100000,-0.100000)"
fill="#000000" stroke="none">
<path d="M6040 8340 c-13 -16 -27 -27 -31 -24 -5 2 -18 -8 -29 -24 -19 -26
-26 -29 -72 -26 -28 1 -70 9 -92 18 -40 15 -111 28 -150 27 -27 0 -37 -20 -32
-64 3 -26 0 -40 -9 -43 -8 -3 -22 -26 -31 -50 -17 -45 -45 -70 -65 -59 -5 4
-21 0 -34 -9 -37 -25 -74 -21 -85 9 -5 14 -13 25 -17 26 -5 0 -68 2 -141 4
l-132 3 -24 -31 c-23 -28 -25 -29 -41 -14 -9 10 -24 17 -33 18 -9 0 -28 2 -41
5 -16 3 -31 -4 -49 -23 -15 -16 -25 -31 -24 -35 1 -5 -3 -8 -8 -8 -6 0 -10 -7
-10 -15 0 -8 -13 -21 -30 -30 -16 -8 -29 -19 -29 -23 3 -20 -2 -33 -11 -27 -9
5 -52 -55 -56 -77 -1 -5 -2 -12 -3 -18 0 -5 -8 -10 -17 -10 -13 0 -14 -3 -4
-15 15 -18 6 -45 -15 -45 -9 0 -13 -4 -10 -10 3 -5 -3 -20 -14 -32 -23 -24
-27 -43 -11 -53 6 -4 7 -11 4 -17 -4 -6 0 -16 9 -23 9 -7 18 -21 20 -31 1 -10
6 -24 10 -31 4 -6 1 -13 -5 -16 -10 -3 -9 -12 5 -35 23 -41 21 -74 -6 -100
-22 -21 -24 -21 -47 -4 -14 9 -38 24 -55 33 -22 12 -29 23 -30 47 -1 37 -27
69 -74 88 -42 18 -85 13 -143 -14 -56 -28 -60 -27 -86 3 -33 38 -73 33 -117
-12 -20 -21 -44 -38 -53 -39 -10 -1 -26 -4 -38 -8 -18 -5 -24 0 -37 36 -9 24
-20 58 -23 76 -4 17 -10 32 -15 32 -5 0 -15 16 -23 35 -18 43 -49 46 -88 10
-15 -14 -33 -25 -40 -25 -27 0 -61 -34 -83 -82 -23 -50 -23 -50 -43 -30 -11
11 -23 38 -27 61 -4 25 -14 45 -25 51 -28 15 -71 12 -92 -7 -17 -15 -20 -15
-47 11 -16 16 -27 34 -24 42 2 7 2 18 -2 24 -9 14 -41 -3 -87 -48 l-37 -35
-26 26 c-31 30 -82 51 -91 36 -3 -5 -2 -24 1 -41 6 -26 3 -34 -16 -49 -21 -16
-26 -16 -51 -3 l-29 15 18 30 c16 26 16 31 3 39 -31 20 -89 31 -109 20 -44
-23 -106 -5 -94 27 4 9 -2 16 -16 20 -20 5 -25 17 -33 68 -3 15 -11 20 -38 21
-19 0 -47 -3 -61 -7 -26 -7 -78 10 -107 34 -8 7 -34 13 -57 13 -24 1 -54 10
-69 19 -14 9 -52 19 -83 22 -43 4 -67 12 -91 31 -18 15 -48 35 -65 44 -18 10
-38 26 -45 35 -12 16 -15 16 -49 -2 -20 -11 -42 -18 -47 -17 -24 8 -49 11
-123 13 -44 1 -102 10 -132 21 -68 23 -94 23 -164 -1 -39 -14 -85 -20 -154
-20 -54 -1 -105 -1 -113 -2 -8 0 -29 2 -46 6 -28 5 -33 2 -47 -27 -8 -18 -18
-44 -22 -56 -4 -14 -21 -30 -42 -38 -19 -8 -52 -33 -72 -55 -42 -43 -65 -49
-80 -20 -8 14 -18 18 -44 14 -18 -2 -45 3 -62 11 -37 19 -59 5 -53 -36 3 -16
-1 -33 -9 -39 -16 -14 -17 -49 -2 -49 6 0 8 -7 5 -16 -4 -9 -1 -22 4 -30 14
-16 9 -44 -11 -67 -18 -20 -14 -57 6 -57 14 0 25 -22 25 -50 0 -10 15 -31 34
-48 26 -22 33 -35 29 -54 -3 -14 1 -29 10 -36 8 -7 13 -20 10 -30 -7 -28 24
-89 67 -132 43 -43 40 -53 -19 -48 -27 2 -35 -1 -42 -20 -8 -20 -5 -25 12 -29
14 -4 19 -11 16 -25 -3 -11 0 -21 8 -24 14 -6 26 -54 29 -116 2 -36 -8 -49
-39 -52 -5 -1 -11 -10 -13 -21 -9 -55 -20 -63 -91 -60 -68 2 -101 -7 -101 -28
0 -14 -63 -72 -145 -132 -91 -66 -278 -255 -356 -357 -11 -16 -27 -28 -35 -28
-8 0 -14 -4 -14 -9 0 -6 -18 -31 -41 -57 -34 -39 -39 -51 -33 -73 4 -14 7 -39
6 -55 -1 -16 3 -35 9 -42 5 -6 9 -25 9 -40 0 -16 1 -36 2 -45 3 -28 -23 -78
-43 -84 -29 -9 -23 -27 21 -70 22 -21 40 -48 40 -59 0 -16 -3 -17 -12 -8 -7 7
-25 12 -40 12 -18 0 -37 9 -51 25 -26 29 -40 23 -53 -25 -5 -20 -16 -35 -24
-35 -8 0 -19 -10 -25 -22 -5 -13 -13 -23 -17 -23 -5 0 -8 -6 -8 -13 0 -7 -8
-22 -18 -33 -11 -11 -18 -28 -16 -39 2 -11 -3 -26 -10 -35 -8 -8 -19 -32 -26
-52 -6 -21 -17 -38 -23 -38 -7 -1 -29 -16 -50 -34 -38 -34 -45 -54 -50 -146
-2 -31 1 -35 23 -35 15 0 26 -6 26 -15 1 -8 2 -20 3 -27 1 -7 8 -10 18 -6 11
5 14 3 8 -6 -7 -13 13 -90 24 -92 47 -6 67 -12 69 -19 2 -4 12 -18 23 -31 19
-22 23 -33 20 -55 -3 -24 26 -36 65 -25 45 13 51 9 74 -43 18 -38 18 -42 3
-59 -15 -16 -15 -19 -1 -33 19 -19 38 -11 38 17 0 18 2 19 28 5 35 -18 57 -7
77 40 8 18 20 34 27 34 22 0 68 -24 68 -36 0 -31 103 -93 124 -75 8 7 26 5 54
-4 22 -8 55 -16 73 -17 21 -2 37 -11 47 -28 9 -14 17 -26 18 -28 1 -2 14 4 28
13 21 14 31 15 61 5 19 -6 39 -18 43 -26 7 -13 42 -24 77 -25 25 0 96 19 108
30 30 24 137 -34 137 -74 0 -17 10 -28 39 -42 30 -13 45 -30 61 -65 20 -45 22
-46 58 -41 52 8 89 29 109 61 27 40 71 82 91 84 9 0 31 3 47 4 40 5 143 4 179
0 16 -2 44 3 63 10 19 8 70 15 119 15 l86 1 19 33 c11 18 26 35 33 38 6 3 18
23 26 46 10 31 20 43 39 48 14 3 31 10 38 15 7 5 21 7 32 3 29 -9 78 20 97 58
23 44 21 43 49 17 20 -19 28 -21 37 -12 10 10 10 17 0 32 -6 11 -12 22 -12 25
0 9 48 5 94 -7 39 -10 48 -10 64 5 15 14 21 15 38 3 25 -17 76 -15 99 4 9 8
32 15 49 16 17 0 49 13 70 27 l39 27 15 -21 c10 -15 23 -20 47 -18 35 3 73
-23 110 -76 12 -15 29 -30 38 -32 9 -1 25 -5 35 -7 9 -3 21 -5 25 -5 4 -1 5
-17 1 -36 -7 -37 9 -48 34 -23 8 8 14 5 22 -16 l10 -28 36 21 c19 12 40 19 45
16 15 -10 10 -38 -12 -62 -21 -21 -21 -23 -4 -29 12 -5 23 0 35 16 15 20 18
21 23 5 4 -9 5 -21 2 -26 -8 -11 25 -60 35 -54 5 3 7 14 5 24 -6 30 10 43 58
45 79 4 107 -11 131 -74 39 -103 71 -128 123 -99 44 25 48 24 63 -11 7 -17 19
-34 28 -39 13 -7 12 -12 -4 -39 -17 -29 -17 -32 -1 -50 22 -24 21 -40 -3 -77
-11 -16 -20 -46 -20 -65 0 -20 -6 -44 -14 -55 -20 -29 -3 -63 39 -81 36 -15
92 -85 81 -102 -8 -14 27 -41 49 -38 10 1 21 8 23 14 7 23 42 13 53 -15 8 -23
7 -30 -8 -41 -20 -15 -23 -29 -11 -55 7 -13 3 -19 -17 -27 -14 -5 -25 -13 -25
-18 0 -16 39 -44 50 -37 24 15 29 -19 9 -56 -24 -48 -24 -46 10 -54 16 -3 37
-15 47 -26 9 -10 24 -19 32 -19 7 0 26 -9 42 -20 15 -11 39 -24 54 -30 30 -11
31 -16 12 -60 -9 -23 -11 -44 -4 -72 6 -28 4 -51 -6 -80 -12 -38 -12 -44 7
-76 11 -19 36 -44 54 -55 19 -11 32 -21 31 -23 -2 -1 -26 -5 -53 -9 -27 -3
-57 -12 -66 -21 -15 -13 -18 -13 -32 1 -11 11 -14 25 -10 45 4 22 2 30 -8 31
-8 0 -23 2 -33 4 -28 5 -42 -6 -42 -35 0 -18 -5 -26 -22 -28 -12 -2 -22 1 -22
6 0 6 -11 13 -24 16 -19 5 -22 11 -18 31 3 19 0 25 -14 25 -25 0 -39 -11 -47
-34 -7 -17 -9 -17 -25 -3 -22 19 -58 7 -67 -23 -7 -21 -32 -22 -28 -2 9 40 11
102 3 107 -7 5 -46 -12 -150 -65 -24 -12 -17 -156 10 -185 25 -27 25 -33 -1
-62 -14 -14 -23 -38 -25 -65 -1 -24 -3 -46 -3 -49 -1 -4 -21 -12 -46 -19 -56
-16 -70 -32 -70 -84 0 -38 -3 -43 -50 -72 -93 -59 -116 -83 -108 -112 11 -42
8 -109 -6 -126 -9 -11 -19 -13 -37 -6 -46 18 -78 19 -100 5 -29 -19 -37 -53
-14 -65 10 -5 20 -26 24 -49 7 -43 48 -81 106 -96 3 0 20 -9 38 -18 17 -10 32
-15 32 -12 0 3 16 -1 35 -9 20 -9 42 -13 50 -11 51 16 49 15 29 30 -17 12 -18
14 -2 20 9 4 14 13 11 21 -7 19 0 18 39 -6 44 -27 53 -25 67 9 13 31 47 51 86
51 14 0 33 8 43 18 10 9 27 18 37 19 11 2 34 4 50 7 74 9 178 -54 190 -115 8
-41 16 -57 31 -63 10 -4 14 -1 11 6 -2 7 2 27 8 43 10 24 12 86 6 150 -1 6
-15 10 -31 11 -21 1 -30 -4 -30 -15 -1 -13 -2 -13 -11 2 -8 14 -7 23 5 36 17
19 22 46 7 36 -15 -9 -25 16 -26 68 0 28 5 53 12 59 8 6 10 20 7 34 -4 16 -2
24 6 24 8 0 10 10 7 27 -5 25 -4 26 8 10 7 -11 11 -35 9 -58 -3 -30 1 -46 15
-61 11 -11 17 -26 14 -34 -7 -19 11 -18 27 1 7 8 16 13 20 10 4 -2 15 4 25 15
16 18 16 20 2 20 -9 0 -21 9 -27 20 -9 17 -7 22 16 30 21 8 31 7 45 -6 21 -19
23 -16 10 19 -8 20 -7 24 7 23 12 -1 16 6 15 22 -3 25 18 30 36 8 18 -22 50
-16 45 7 -2 11 0 27 5 35 6 11 9 8 9 -12 0 -15 2 -29 5 -33 10 -9 70 46 98 91
15 22 50 63 78 91 28 27 51 53 51 57 0 4 23 41 50 81 53 78 58 94 38 117 -11
12 -10 12 3 2 14 -11 21 -8 43 19 14 17 24 35 21 39 -3 5 -1 11 5 15 6 4 5 17
-5 35 -12 24 -13 34 -3 49 6 10 17 17 23 15 6 -3 42 9 80 26 67 30 81 32 203
27 46 -2 55 1 77 27 35 40 40 64 19 87 -21 23 -12 26 11 3 15 -15 17 -15 22 5
3 11 9 21 14 21 14 0 -14 -71 -40 -103 -16 -20 -17 -19 26 -34 29 -10 33 -9
38 8 8 23 18 24 78 3 39 -13 50 -14 74 -2 23 11 28 20 29 53 1 22 -5 50 -12
61 -16 27 -8 61 17 69 11 4 21 21 27 48 7 31 11 38 17 25 4 -11 -1 -34 -14
-61 -22 -46 -27 -92 -11 -102 6 -3 10 -17 10 -29 0 -30 29 -66 55 -70 11 -1
24 -12 30 -24 10 -24 41 -22 61 4 9 11 14 9 31 -7 31 -31 52 -29 131 12 39 22
72 35 72 29 0 -5 -19 -18 -42 -28 -54 -24 -89 -58 -82 -77 4 -9 -4 -19 -21
-27 -22 -10 -32 -9 -60 6 -18 10 -38 15 -44 12 -6 -4 -17 -4 -23 1 -7 4 -40 9
-73 11 -90 5 -95 5 -95 16 0 5 -3 7 -6 3 -4 -3 -19 0 -34 8 -15 8 -29 13 -31
11 -2 -2 -23 -6 -47 -10 -34 -4 -46 -2 -62 14 -11 11 -21 16 -24 11 -3 -4 16
-28 42 -53 26 -25 53 -54 59 -64 11 -17 12 -16 8 8 -5 39 27 45 90 18 27 -11
55 -18 62 -16 13 5 53 -27 53 -41 -1 -17 -54 -45 -88 -48 -79 -5 -98 -24 -56
-51 16 -11 24 -11 46 0 23 12 29 12 38 0 7 -7 27 -16 46 -20 19 -3 34 -10 34
-15 0 -13 49 -42 73 -44 15 -1 23 -9 25 -24 4 -25 40 -44 116 -61 29 -6 53 -7
64 -1 47 26 79 32 177 35 106 4 105 4 105 21 0 17 16 20 25 5 3 -5 14 -10 24
-10 20 0 54 33 44 43 -3 4 -1 7 7 7 9 0 11 -9 6 -31 -5 -26 -4 -29 8 -20 20
17 48 3 41 -20 -4 -11 -2 -19 3 -19 6 0 12 5 14 11 5 15 36 0 43 -20 3 -12 16
-17 40 -18 30 -1 34 1 24 13 -11 13 -2 19 24 15 12 -2 8 17 -5 21 -7 3 -5 11
7 26 l19 21 17 -26 c13 -20 15 -30 6 -44 -8 -13 -8 -21 2 -33 10 -12 11 -16 1
-16 -10 0 -10 -3 0 -15 10 -12 10 -18 0 -30 -10 -12 -6 -14 28 -10 29 2 45 -1
54 -13 7 -9 9 -13 3 -10 -5 3 -20 2 -32 -3 -15 -5 -20 -14 -16 -28 6 -23 -6
-28 -24 -10 -12 12 -53 -4 -53 -20 0 -5 -15 -9 -34 -8 -23 1 -41 -7 -60 -26
-15 -15 -40 -34 -57 -43 -28 -14 -33 -14 -56 2 -25 16 -26 16 -21 -4 5 -18 -5
-26 -61 -54 -90 -45 -143 -87 -136 -109 5 -14 1 -16 -15 -12 -14 4 -28 -2 -41
-16 -11 -11 -29 -21 -39 -21 -11 0 -20 -4 -20 -8 0 -4 -12 -15 -27 -24 -34
-20 -68 -74 -53 -83 5 -3 10 -14 10 -24 0 -34 84 -50 114 -22 11 10 37 20 56
22 43 3 100 -9 100 -22 0 -5 6 -9 13 -9 6 0 35 -23 64 -51 29 -28 59 -52 67
-53 7 -1 21 -8 30 -15 13 -11 22 -11 53 2 36 14 38 14 84 -17 51 -33 58 -43
66 -91 3 -16 9 -35 15 -42 5 -6 9 -31 10 -54 0 -33 -5 -46 -23 -60 -24 -18
-24 -24 -18 -124 0 -11 -2 -30 -6 -42 -6 -18 -3 -23 11 -23 30 0 8 -11 -32
-16 -22 -3 -40 -9 -42 -14 -2 -5 -10 -6 -18 -3 -25 10 -15 -14 20 -45 36 -31
73 -48 83 -38 8 8 43 -24 43 -38 0 -20 63 -40 130 -42 77 -3 185 35 193 67 3
10 16 23 30 28 14 6 28 19 32 30 3 12 12 18 20 15 9 -4 25 19 50 73 41 85 53
98 106 113 20 5 49 20 63 31 18 14 46 23 78 25 28 2 56 8 62 14 16 16 50 12
69 -10 21 -25 33 -25 47 0 6 11 9 20 6 20 -3 0 0 14 6 30 6 18 19 32 33 36 13
3 26 16 29 28 6 23 38 29 64 12 10 -6 13 -2 10 15 -2 19 2 25 20 27 26 4 28
11 6 27 -15 10 -12 16 20 47 31 30 44 36 74 34 51 -4 109 -33 135 -68 20 -27
60 -38 71 -19 3 5 15 7 25 4 13 -3 23 2 31 17 9 17 18 21 38 16 72 -17 102
-17 108 -1 3 8 17 15 31 15 30 0 83 27 83 42 0 6 -7 20 -17 30 -9 10 -15 31
-14 50 2 18 3 43 3 56 0 15 9 27 24 34 19 9 22 14 12 25 -17 21 7 33 43 23 35
-10 43 0 35 46 -7 36 -16 40 -46 24 -13 -7 -19 -6 -23 4 -4 9 -24 14 -59 16
-169 6 -199 -1 -217 -52 -6 -15 -17 -31 -26 -35 -26 -9 -90 32 -90 58 0 28
-23 37 -31 12 -25 -79 -44 -101 -111 -128 l-66 -26 -28 20 c-16 12 -33 21 -38
21 -15 0 -197 230 -210 264 -2 6 -9 18 -16 26 -7 8 -25 40 -40 70 -15 30 -33
67 -41 82 -27 50 -46 121 -59 210 -5 41 -3 48 14 58 12 6 21 18 21 28 0 13 2
14 9 3 20 -31 141 49 141 93 0 13 19 26 47 31 6 2 14 -6 17 -17 3 -15 10 -19
27 -15 21 6 21 6 2 -16 -10 -12 -29 -43 -41 -69 -18 -37 -31 -50 -67 -65 -25
-10 -45 -21 -45 -25 0 -5 -10 -18 -22 -30 -29 -29 -9 -34 39 -9 59 32 66 40
122 141 66 120 106 171 153 193 20 10 53 40 72 67 58 81 105 103 243 115 49 5
53 3 59 -19 6 -24 34 -27 34 -3 0 37 103 117 151 117 10 0 21 5 24 10 11 18
81 11 100 -10 19 -21 14 -67 -8 -83 -8 -5 -6 -7 6 -5 10 2 18 5 17 8 0 3 8 31
19 63 11 31 18 57 16 57 -3 0 5 11 17 25 12 14 27 25 34 25 7 0 14 4 16 8 2 5
32 25 67 46 57 33 67 36 92 26 17 -8 26 -17 22 -26 -12 -32 16 -11 31 23 17
39 22 49 69 121 28 43 28 43 77 36 34 -4 61 -1 92 10 23 9 61 14 83 12 22 -2
47 0 55 4 21 11 52 -13 44 -34 -11 -29 5 -17 32 24 21 31 25 48 21 75 -5 29
-1 41 22 68 33 39 31 71 -5 64 -34 -6 -36 2 -13 53 16 36 19 59 15 113 -4 58
-3 69 12 74 9 3 23 11 30 16 7 6 39 19 70 30 30 10 67 27 80 38 14 10 31 19
38 19 14 0 20 15 29 75 12 83 14 85 128 91 40 2 93 6 119 9 25 3 48 2 51 -2 8
-13 59 -9 87 7 14 8 55 14 95 14 l70 1 6 48 c3 31 0 58 -8 74 -12 23 -11 29 4
45 10 12 16 31 15 48 -4 34 19 91 48 120 12 12 20 31 18 43 -3 19 -8 22 -45
19 -47 -3 -53 6 -24 32 19 18 19 18 -1 57 -11 21 -22 57 -25 79 -4 25 -14 46
-25 55 -21 14 -17 35 7 35 16 0 31 43 20 59 -3 6 -19 11 -36 11 -25 0 -33 -7
-51 -45 -22 -44 -42 -57 -51 -32 -5 14 36 134 51 149 6 6 37 11 70 12 34 1 64
4 67 7 3 4 10 20 15 38 6 23 5 35 -7 46 -8 8 -20 12 -26 8 -6 -3 -29 -10 -51
-14 -36 -6 -44 -4 -74 22 -18 16 -37 29 -41 29 -15 0 -22 32 -11 45 6 7 37 18
69 24 58 11 76 26 65 55 -3 8 10 31 29 53 19 21 47 62 61 91 27 52 27 55 9 75
-10 12 -27 29 -38 38 -11 9 -28 30 -37 47 -17 29 -17 30 8 67 14 21 23 44 20
51 -8 21 -67 17 -105 -9 -73 -47 -67 -47 -132 -13 -42 22 -64 41 -77 66 l-17
35 -76 0 c-84 0 -104 10 -114 55 -3 15 -14 35 -24 44 -17 15 -20 15 -34 2 -8
-9 -17 -20 -19 -25 -1 -6 -20 -17 -40 -26 -37 -15 -38 -15 -44 10 -9 35 -39
54 -79 48 -31 -4 -35 -1 -55 36 -21 43 -34 50 -47 27 -16 -26 -49 -36 -69 -21
-11 8 -26 15 -35 15 -9 0 -24 9 -35 21 -26 29 -52 41 -67 32 -6 -4 -18 -8 -26
-10 -30 -4 -35 -22 -17 -59 9 -20 16 -38 14 -39 -2 -1 -22 -12 -45 -24 -39
-19 -42 -20 -47 -3 -4 9 -26 38 -50 65 -34 36 -51 47 -75 47 -24 0 -34 7 -46
30 -8 16 -29 45 -46 65 -25 28 -30 42 -27 72 3 35 1 39 -32 49 -24 8 -38 21
-48 43 -12 31 -14 32 -60 25 -26 -3 -56 -15 -68 -25 -11 -11 -27 -19 -35 -19
-8 0 -28 -8 -44 -18 -17 -11 -55 -25 -85 -32 -58 -13 -101 -45 -126 -92 -20
-38 -52 -37 -66 3 -14 40 -42 50 -96 32 -48 -17 -62 -11 -82 37 -16 38 -65 60
-134 60 -50 0 -60 -4 -96 -36 -29 -27 -51 -37 -76 -39 -33 -1 -38 2 -54 40
-10 23 -29 51 -42 61 -14 11 -32 41 -41 68 -16 47 -16 51 2 70 24 28 17 83
-16 118 -14 14 -24 29 -23 32 4 15 -12 63 -29 85 -17 22 -17 27 -5 47 13 19
13 24 -2 39 -11 10 -27 15 -43 12 -45 -9 -60 7 -76 83 -7 31 -20 50 -35 50
-26 0 -150 -29 -171 -41 -13 -7 -27 -1 -59 26 -33 28 -50 35 -83 35 -23 -1
-53 -7 -67 -14 -17 -10 -30 -11 -42 -5 -22 12 -24 39 -3 39 16 0 17 1 19 40 1
19 -7 29 -32 41 -28 15 -30 18 -16 30 27 23 14 96 -30 156 -45 63 -45 63 107
97 15 4 27 13 27 22 0 31 -33 84 -64 103 -46 29 -116 96 -116 112 0 8 -7 22
-15 33 -9 12 -11 24 -5 36 15 29 5 51 -61 131 -89 108 -129 121 -189 64 -25
-24 -33 -27 -40 -15 -5 8 -7 17 -4 21 7 12 -28 20 -106 24 -73 4 -76 4 -100
-25z m-670 -4326 c0 -8 -5 -12 -10 -9 -6 4 -8 11 -5 16 9 14 15 11 15 -7z m50
-44 c0 -5 -2 -10 -4 -10 -3 0 -8 5 -11 10 -3 6 -1 10 4 10 6 0 11 -4 11 -10z
m29 -101 c-16 -30 -5 -47 25 -42 29 6 34 -8 11 -27 -13 -11 -14 -10 -9 4 5 14
2 16 -18 11 -20 -5 -26 -2 -31 14 -3 12 -1 24 4 27 14 8 11 40 -6 54 -8 7 -15
18 -15 24 0 6 12 -2 25 -17 21 -23 23 -32 14 -48z m32 -102 c-1 -12 -15 -9
-19 4 -3 6 1 10 8 8 6 -3 11 -8 11 -12z m1331 -544 c10 -9 18 -22 18 -28 0 -7
9 -24 20 -38 11 -14 20 -29 19 -34 -3 -18 1 -36 8 -29 11 10 13 66 2 66 -5 0
-9 7 -9 15 0 8 5 15 10 15 6 0 10 -5 10 -12 0 -6 3 -9 6 -6 3 4 22 -5 42 -19
l37 -24 18 22 c21 27 37 13 29 -26 -3 -20 -7 -22 -22 -13 -26 17 -53 -7 -45
-40 3 -13 2 -21 -4 -18 -5 3 -12 -2 -15 -11 -7 -17 12 -36 26 -27 4 3 8 -4 8
-15 0 -25 15 -28 24 -5 3 8 9 13 14 10 26 -16 62 55 55 111 -4 35 -2 42 16 48
26 8 71 -21 71 -47 0 -17 -3 -18 -14 -9 -11 10 -20 10 -38 0 -14 -8 -18 -14
-10 -17 6 -2 12 -9 12 -16 0 -22 35 -47 48 -34 8 8 12 3 17 -18 3 -16 9 -41
14 -55 5 -15 7 -46 5 -70 l-4 -44 20 23 c19 23 40 22 40 -1 0 -14 58 -126 74
-143 6 -7 43 -54 81 -105 85 -112 149 -179 173 -179 15 -1 15 -2 -2 -15 -14
-10 -23 -12 -32 -4 -16 13 -112 49 -144 53 -13 2 -34 17 -47 32 -27 34 -29 44
-8 44 28 0 34 32 15 82 -18 49 -77 121 -91 112 -16 -9 -49 20 -43 38 6 19 -10
25 -21 8 -3 -5 -16 -8 -28 -6 -19 3 -22 8 -19 41 3 31 1 37 -12 31 -9 -3 -22
-9 -30 -12 -11 -4 -13 0 -9 15 3 12 16 24 29 27 24 6 32 28 14 39 -5 3 -10 2
-10 -3 0 -5 -13 -15 -30 -22 -16 -7 -35 -22 -43 -34 -8 -11 -29 -29 -46 -39
l-31 -18 28 45 c15 25 32 46 39 46 17 0 34 55 20 69 -17 17 -50 14 -43 -4 3
-9 -3 -24 -14 -35 -26 -26 -30 -25 -30 5 0 18 -4 23 -15 19 -8 -4 -15 -12 -15
-20 0 -8 -7 -14 -15 -14 -8 0 -15 5 -15 10 0 6 5 10 10 10 6 0 10 9 10 20 0
11 -5 20 -11 20 -5 0 -8 4 -4 9 3 5 -3 17 -12 27 -17 17 -18 17 -21 0 -2 -9
-9 -15 -15 -13 -7 2 -11 11 -9 21 3 19 -14 22 -21 4 -4 -9 -8 -10 -14 -3 -4 6
-24 12 -43 13 l-35 3 27 -18 c29 -18 40 -44 28 -63 -9 -15 -40 -6 -40 10 0 6
4 9 9 6 5 -3 11 0 14 7 7 18 -86 97 -113 97 -13 0 -20 -5 -17 -12 2 -7 9 -12
14 -11 5 1 9 -7 9 -18 0 -10 -6 -19 -13 -19 -7 0 -13 5 -13 11 0 6 -9 8 -20 4
-15 -5 -18 -3 -14 8 3 8 1 18 -5 22 -6 3 -11 19 -11 36 0 16 -2 29 -4 29 -2 0
-12 3 -21 7 -14 5 -16 2 -10 -15 3 -12 4 -22 1 -22 -18 0 -39 17 -53 44 -8 17
-12 28 -8 24 3 -3 16 3 27 14 13 13 23 16 27 10 3 -6 26 -12 51 -14 37 -2 49
-8 66 -33 12 -17 28 -29 37 -27 9 2 17 -2 17 -8 0 -5 7 -10 15 -10 17 0 20 21
4 37 -8 8 -8 13 1 18 7 4 14 -1 17 -14 7 -27 20 -27 28 0 5 15 2 25 -9 31 -15
9 -23 58 -9 58 3 0 15 -7 25 -17z"/>
</g>
</svg>
